<svg width="68" height="16" viewBox="0 0 68 16" fill="none" xmlns="http://www.w3.org/2000/svg">
<path d="M7.73375 0.279785L9.92481 4.99779L15.089 5.62367L11.279 9.16544L12.2795 14.2703L7.73375 11.7412L3.18796 14.2703L4.18853 9.16544L0.378517 5.62367L5.54268 4.99779L7.73375 0.279785Z" fill="#FFC633"/>
<path d="M27.6449 0.279785L29.8359 4.99779L35.0001 5.62367L31.1901 9.16544L32.1907 14.2703L27.6449 11.7412L23.0991 14.2703L24.0997 9.16544L20.2896 5.62367L25.4538 4.99779L27.6449 0.279785Z" fill="#FFC633"/>
<path d="M47.5561 0.279785L49.7472 4.99779L54.9114 5.62367L51.1014 9.16544L52.1019 14.2703L47.5561 11.7412L43.0104 14.2703L44.0109 9.16544L40.2009 5.62367L45.3651 4.99779L47.5561 0.279785Z" fill="#FFC633"/>
<path d="M62.543 14.2703L67.0888 11.7412V0.279785L64.8977 4.99779L59.7335 5.62367L63.5435 9.16544L62.543 14.2703Z" fill="#FFC633"/>
</svg>
